# xmcd CD database file generated by Grip 3.2.0
# 
# Track frame offsets:
#       150
#       12126
#       24133
#       41117
#       62756
#       74315
#       91491
#       111402
#       132690
#       150377
# 
# Disc length: 2173 seconds
# 
# Revision: 1
# Processed by: cddbd v1.5.2PL0 Copyright (c) Steve Scherf et al.
# Submitted via: Grip 3.2.0
# 
DISCID=81087b0a
DTITLE=Danny Winn and the Earthlings - Band from Earth
DYEAR=2000
DGENRE=Ska
TTITLE0=Goin' Bald
TTITLE1=Thanks to You
TTITLE2=Africa
TTITLE3=Low Self Esteem
TTITLE4=Abducted
TTITLE5=Ain't No Quitter
TTITLE6=Brighter Day
TTITLE7=I Am an Earthling
TTITLE8=Gonna Make Her Mine
TTITLE9=Be Yourself
EXTD=
EXTT0=
EXTT1=
EXTT2=
EXTT3=
EXTT4=
EXTT5=
EXTT6=
EXTT7=
EXTT8=
EXTT9=
PLAYORDER=
